<?xml version="1.0" encoding="UTF-8" standalone="no"?>
<!DOCTYPE svg PUBLIC "-//W3C//DTD SVG 1.1//EN" "http://www.w3.org/Graphics/SVG/1.1/DTD/svg11.dtd">
<svg width="100%" height="100%" viewBox="0 0 73 73" version="1.1" xmlns="http://www.w3.org/2000/svg" xmlns:xlink="http://www.w3.org/1999/xlink" xml:space="preserve" xmlns:serif="http://www.serif.com/" style="fill-rule:evenodd;clip-rule:evenodd;stroke-linecap:round;stroke-linejoin:round;stroke-miterlimit:1.5;">
    <g transform="matrix(1,0,0,1,-40.3726,-73.413)">
        <g transform="matrix(1,0,0,1,-35.6524,-130.217)">
            <path d="M112.275,207.88C129.936,207.88 144.275,222.219 144.275,239.88C144.275,257.541 129.936,271.88 112.275,271.88C94.614,271.88 80.275,257.541 80.275,239.88C80.275,222.219 94.614,207.88 112.275,207.88ZM112.275,215.88C125.521,215.88 136.275,226.634 136.275,239.88C136.275,253.126 125.521,263.88 112.275,263.88C99.029,263.88 88.275,253.126 88.275,239.88C88.275,226.634 99.029,215.88 112.275,215.88Z" style="fill:white;stroke:white;stroke-width:8.5px;"/>
        </g>
    </g>
</svg>
